<?xml version="1.0" standalone="no"?>
<!DOCTYPE svg PUBLIC "-//W3C//DTD SVG 20010904//EN"
 "http://www.w3.org/TR/2001/REC-SVG-20010904/DTD/svg10.dtd">
<svg version="1.0" xmlns="http://www.w3.org/2000/svg"
 width="1024.000000pt" height="1024.000000pt" viewBox="0 0 1024.000000 1024.000000"
 preserveAspectRatio="xMidYMid meet">

<g transform="translate(0.000000,1024.000000) scale(0.100000,-0.100000)"
fill="#000000" stroke="none">
<path d="M3670 9974 c-436 -114 -741 -701 -767 -1474 -16 -498 90 -1013 296
-1435 101 -206 199 -351 325 -483 121 -125 203 -190 311 -243 220 -108 446
-104 643 13 69 41 188 152 248 231 239 319 360 809 340 1387 -26 798 -362
1567 -819 1879 -80 55 -227 119 -297 130 -89 15 -214 13 -280 -5z"/>
<path d="M6800 9810 c-41 -11 -121 -42 -176 -70 -443 -218 -829 -818 -988
-1536 -66 -296 -87 -572 -67 -870 35 -531 241 -946 551 -1108 289 -152 653
-49 971 275 373 379 642 1017 709 1678 13 133 13 415 -1 539 -61 568 -296 966
-639 1083 -94 32 -258 36 -360 9z"/>
<path d="M1610 7195 c-351 -97 -591 -437 -656 -930 -22 -166 -15 -492 15 -660
142 -802 640 -1484 1187 -1626 367 -95 697 69 883 440 48 95 107 281 131 411
26 147 29 491 5 650 -44 296 -126 556 -256 815 -226 448 -555 767 -909 880
-108 35 -310 45 -400 20z"/>
<path d="M8520 6570 c-239 -34 -471 -163 -691 -383 -332 -334 -566 -832 -645
-1377 -23 -164 -15 -521 16 -665 89 -417 301 -694 600 -787 63 -19 95 -23 205
-22 157 1 252 26 408 106 503 258 911 925 1013 1653 20 143 23 431 5 555 -17
118 -56 270 -94 366 -60 148 -114 231 -222 340 -84 84 -114 107 -185 141 -134
66 -281 92 -410 73z"/>
<path d="M4970 5135 c-255 -47 -568 -218 -883 -483 -884 -745 -1735 -2201
-1797 -3078 -23 -311 32 -487 199 -646 148 -142 340 -241 561 -290 95 -21 129
-23 350 -23 187 1 271 5 355 19 198 32 386 75 640 144 138 38 341 94 452 125
281 78 343 90 458 90 165 1 267 -29 645 -190 447 -190 508 -207 745 -207 157
0 177 2 260 28 213 65 426 209 612 411 104 115 147 180 180 278 27 80 28 88
28 302 0 232 -3 257 -62 490 -195 785 -763 1763 -1388 2391 -501 502 -947 713
-1355 639z"/>
</g>
</svg>
